<svg width="42" height="49" viewBox="0 0 42 49" fill="none" xmlns="http://www.w3.org/2000/svg">
<path d="M41.8217 19.7221V48.2561H33.7182V41.9564C30.9557 46.218 25.6148 48.6267 18.248 48.6267C7.56614 48.6267 0.936035 42.8828 0.936035 34.7303C0.936035 27.1335 5.72444 21.0191 19.7213 21.0191H33.1657V19.3515C33.1657 12.1254 28.9298 8.04906 20.6422 8.04906C15.1171 8.04906 9.40783 10.0872 5.72444 13.0518L2.22522 6.56677C7.01362 2.67577 14.0121 0.452332 21.563 0.452332C34.6391 0.637618 41.8217 6.93735 41.8217 19.7221ZM33.3499 33.8038V27.1335H20.2738C11.802 27.1335 9.40783 30.4687 9.40783 34.3597C9.40783 38.9918 13.2754 41.9564 19.7213 41.9564C26.1673 42.1417 31.324 39.3624 33.3499 33.8038Z" fill="#FF6060"/>
</svg>
